<svg width="108" height="21" viewBox="0 0 108 21" fill="none" xmlns="http://www.w3.org/2000/svg">
<path d="M15.25 0.916672H3.75C2.15917 0.916672 0.875 2.19125 0.875 3.76292V14.2183C0.875 15.79 2.15917 17.0646 3.75 17.0646H4.47833C5.245 17.0646 5.97333 17.3617 6.51 17.8983L8.14875 19.5179C8.89625 20.2558 10.1133 20.2558 10.8608 19.5179L12.4996 17.8983C13.0363 17.3617 13.7742 17.0646 14.5312 17.0646H15.25C16.8408 17.0646 18.125 15.79 18.125 14.2183V3.76292C18.125 2.19125 16.8408 0.916672 15.25 0.916672ZM13.985 9.0625L12.8637 12.4742C12.72 13.0396 12.1163 13.4996 11.5029 13.4996H9.73C9.42333 13.4996 8.99208 13.3942 8.80042 13.2025L7.39167 12.1004C7.36292 12.7138 7.085 12.9725 6.40458 12.9725H5.94458C5.23542 12.9725 4.94792 12.6946 4.94792 12.0238V7.4525C4.94792 6.78167 5.23542 6.50376 5.94458 6.50376H6.41417C7.12333 6.50376 7.41083 6.78167 7.41083 7.4525V7.79751L9.27 5.03751C9.46167 4.74042 9.95042 4.52959 10.3625 4.69251C10.8129 4.84584 11.1004 5.34417 11.0046 5.78501L10.7746 7.28001C10.7458 7.40459 10.7746 7.53875 10.8608 7.625C10.9375 7.71126 11.0525 7.76875 11.1771 7.76875H13.0458C13.41 7.76875 13.7167 7.9125 13.8988 8.17125C14.0712 8.42042 14.1 8.73667 13.985 9.0625Z" fill="#8920B2"/>
<path d="M30.0866 5.54545V15H28.9972V5.54545H30.0866ZM32.0821 15V7.90909H33.1716V15H32.0821ZM32.6361 6.72727C32.4237 6.72727 32.2406 6.65495 32.0867 6.5103C31.9359 6.36565 31.8605 6.19176 31.8605 5.98864C31.8605 5.78551 31.9359 5.61162 32.0867 5.46697C32.2406 5.32232 32.4237 5.25 32.6361 5.25C32.8485 5.25 33.03 5.32232 33.1808 5.46697C33.3347 5.61162 33.4117 5.78551 33.4117 5.98864C33.4117 6.19176 33.3347 6.36565 33.1808 6.5103C33.03 6.65495 32.8485 6.72727 32.6361 6.72727ZM36.1827 12.4148L36.1642 11.0668H36.3858L39.4881 7.90909H40.8361L37.5307 11.2514H37.4384L36.1827 12.4148ZM35.1671 15V5.54545H36.2566V15H35.1671ZM39.6728 15L36.9029 11.4915L37.6784 10.7344L41.0577 15H39.6728ZM44.9194 15.1477C44.2362 15.1477 43.6468 14.9969 43.1513 14.6953C42.6589 14.3906 42.2788 13.9659 42.011 13.4212C41.7463 12.8733 41.614 12.2363 41.614 11.5099C41.614 10.7836 41.7463 10.1435 42.011 9.58949C42.2788 9.03243 42.6512 8.59848 43.1282 8.28764C43.6083 7.97372 44.1684 7.81676 44.8086 7.81676C45.1779 7.81676 45.5426 7.87831 45.9027 8.00142C46.2628 8.12453 46.5906 8.32457 46.886 8.60156C47.1815 8.87547 47.4169 9.23864 47.5923 9.69105C47.7678 10.1435 47.8555 10.7005 47.8555 11.3622V11.8239H42.3896V10.8821H46.7475C46.7475 10.482 46.6675 10.125 46.5075 9.81108C46.3505 9.49716 46.1258 9.24941 45.8335 9.06783C45.5442 8.88625 45.2025 8.79545 44.8086 8.79545C44.3746 8.79545 43.9992 8.90317 43.6822 9.11861C43.3683 9.33097 43.1267 9.60795 42.9574 9.94957C42.7881 10.2912 42.7035 10.6574 42.7035 11.0483V11.6761C42.7035 12.2116 42.7958 12.6656 42.9805 13.038C43.1682 13.4073 43.4283 13.6889 43.7607 13.8828C44.093 14.0736 44.4793 14.169 44.9194 14.169C45.2056 14.169 45.4641 14.129 45.695 14.049C45.9289 13.9659 46.1304 13.8428 46.2997 13.6797C46.469 13.5135 46.5998 13.3073 46.6921 13.0611L47.7447 13.3565C47.6339 13.7135 47.4477 14.0275 47.1861 14.2983C46.9245 14.5661 46.6013 14.7753 46.2166 14.9261C45.8319 15.0739 45.3995 15.1477 44.9194 15.1477ZM49.3004 15V7.90909H51.1747V9.16016H51.2578C51.4055 8.74467 51.6518 8.4169 51.9964 8.17685C52.3411 7.93679 52.7536 7.81676 53.2337 7.81676C53.7199 7.81676 54.1339 7.93833 54.4755 8.18146C54.8171 8.42152 55.0449 8.74775 55.1587 9.16016H55.2326C55.3772 8.75391 55.6388 8.42921 56.0174 8.18608C56.399 7.93987 56.8499 7.81676 57.37 7.81676C58.0317 7.81676 58.5688 8.02758 58.9812 8.44922C59.3967 8.86778 59.6044 9.46177 59.6044 10.2312V15H57.6424V10.619C57.6424 10.225 57.5378 9.92957 57.3285 9.7326C57.1192 9.53563 56.8576 9.43714 56.5437 9.43714C56.1867 9.43714 55.9081 9.55102 55.7081 9.77876C55.508 10.0034 55.408 10.3004 55.408 10.6697V15H53.5014V10.5774C53.5014 10.2296 53.4014 9.95265 53.2013 9.74645C53.0044 9.54025 52.7443 9.43714 52.4212 9.43714C52.2027 9.43714 52.0057 9.49254 51.8303 9.60334C51.6579 9.71106 51.521 9.8634 51.4194 10.0604C51.3178 10.2543 51.267 10.482 51.267 10.7436V15H49.3004ZM63.1799 15.1339C62.7275 15.1339 62.3243 15.0554 61.9703 14.8984C61.6164 14.7384 61.3364 14.503 61.1301 14.1921C60.927 13.8782 60.8255 13.4873 60.8255 13.0195C60.8255 12.6256 60.8978 12.2947 61.0424 12.027C61.1871 11.7592 61.3841 11.5438 61.6333 11.3807C61.8826 11.2176 62.1658 11.0945 62.4828 11.0114C62.8029 10.9283 63.1383 10.8698 63.4892 10.8359C63.9016 10.7929 64.234 10.7528 64.4863 10.7159C64.7387 10.6759 64.9218 10.6174 65.0357 10.5405C65.1496 10.4635 65.2065 10.3497 65.2065 10.1989V10.1712C65.2065 9.87879 65.1142 9.65258 64.9295 9.49254C64.7479 9.3325 64.4894 9.25249 64.1539 9.25249C63.8 9.25249 63.5184 9.33097 63.3091 9.48793C63.0998 9.64181 62.9614 9.8357 62.8936 10.0696L61.0748 9.92188C61.1671 9.491 61.3487 9.11861 61.6195 8.80469C61.8903 8.48769 62.2396 8.24455 62.6674 8.07528C63.0983 7.90294 63.5969 7.81676 64.1632 7.81676C64.5571 7.81676 64.9341 7.86293 65.2942 7.95526C65.6574 8.04759 65.979 8.1907 66.2591 8.38459C66.5422 8.57848 66.7653 8.82777 66.9284 9.13246C67.0916 9.43407 67.1731 9.79569 67.1731 10.2173V15H65.3081V14.0167H65.2527C65.1388 14.2383 64.9864 14.4337 64.7956 14.603C64.6048 14.7692 64.3755 14.9 64.1078 14.9954C63.84 15.0877 63.5307 15.1339 63.1799 15.1339ZM63.7431 13.7766C64.0324 13.7766 64.2878 13.7197 64.5094 13.6058C64.731 13.4889 64.9049 13.3319 65.0311 13.1349C65.1573 12.938 65.2203 12.7148 65.2203 12.4656V11.7131C65.1588 11.7531 65.0742 11.79 64.9664 11.8239C64.8618 11.8546 64.7433 11.8839 64.611 11.9116C64.4786 11.9362 64.3463 11.9593 64.214 11.9808C64.0816 11.9993 63.9616 12.0162 63.8539 12.0316C63.623 12.0655 63.4215 12.1193 63.2491 12.1932C63.0768 12.267 62.9429 12.3671 62.8475 12.4933C62.7521 12.6164 62.7044 12.7702 62.7044 12.9549C62.7044 13.2227 62.8013 13.4273 62.9952 13.5689C63.1922 13.7074 63.4415 13.7766 63.7431 13.7766ZM70.6655 10.9006V15H68.6989V7.90909H70.5732V9.16016H70.6562C70.8132 8.74775 71.0763 8.42152 71.4457 8.18146C71.815 7.93833 72.2628 7.81676 72.7891 7.81676C73.2815 7.81676 73.7108 7.92448 74.0771 8.13991C74.4433 8.35535 74.728 8.66312 74.9311 9.06321C75.1342 9.46023 75.2358 9.93419 75.2358 10.4851V15H73.2692V10.8359C73.2723 10.402 73.1615 10.0634 72.9368 9.82031C72.7121 9.5741 72.4028 9.45099 72.0089 9.45099C71.7442 9.45099 71.5103 9.50793 71.3072 9.6218C71.1071 9.73568 70.9502 9.90187 70.8363 10.1204C70.7255 10.3358 70.6686 10.5959 70.6655 10.9006ZM78.8078 15.1339C78.3554 15.1339 77.9522 15.0554 77.5983 14.8984C77.2443 14.7384 76.9643 14.503 76.7581 14.1921C76.555 13.8782 76.4534 13.4873 76.4534 13.0195C76.4534 12.6256 76.5257 12.2947 76.6704 12.027C76.815 11.7592 77.012 11.5438 77.2613 11.3807C77.5106 11.2176 77.7937 11.0945 78.1107 11.0114C78.4308 10.9283 78.7662 10.8698 79.1171 10.8359C79.5295 10.7929 79.8619 10.7528 80.1143 10.7159C80.3666 10.6759 80.5497 10.6174 80.6636 10.5405C80.7775 10.4635 80.8344 10.3497 80.8344 10.1989V10.1712C80.8344 9.87879 80.7421 9.65258 80.5574 9.49254C80.3759 9.3325 80.1173 9.25249 79.7819 9.25249C79.4279 9.25249 79.1463 9.33097 78.9371 9.48793C78.7278 9.64181 78.5893 9.8357 78.5216 10.0696L76.7027 9.92188C76.795 9.491 76.9766 9.11861 77.2474 8.80469C77.5183 8.48769 77.8676 8.24455 78.2954 8.07528C78.7262 7.90294 79.2248 7.81676 79.7911 7.81676C80.185 7.81676 80.5621 7.86293 80.9221 7.95526C81.2853 8.04759 81.6069 8.1907 81.887 8.38459C82.1701 8.57848 82.3933 8.82777 82.5564 9.13246C82.7195 9.43407 82.801 9.79569 82.801 10.2173V15H80.936V14.0167H80.8806C80.7667 14.2383 80.6144 14.4337 80.4236 14.603C80.2327 14.7692 80.0035 14.9 79.7357 14.9954C79.468 15.0877 79.1586 15.1339 78.8078 15.1339ZM79.371 13.7766C79.6603 13.7766 79.9157 13.7197 80.1373 13.6058C80.3589 13.4889 80.5328 13.3319 80.659 13.1349C80.7852 12.938 80.8483 12.7148 80.8483 12.4656V11.7131C80.7867 11.7531 80.7021 11.79 80.5944 11.8239C80.4897 11.8546 80.3712 11.8839 80.2389 11.9116C80.1066 11.9362 79.9742 11.9593 79.8419 11.9808C79.7095 11.9993 79.5895 12.0162 79.4818 12.0316C79.251 12.0655 79.0494 12.1193 78.877 12.1932C78.7047 12.267 78.5708 12.3671 78.4754 12.4933C78.38 12.6164 78.3323 12.7702 78.3323 12.9549C78.3323 13.2227 78.4292 13.4273 78.6231 13.5689C78.8201 13.7074 79.0694 13.7766 79.371 13.7766ZM87.5214 17.8068C86.8843 17.8068 86.338 17.7191 85.8825 17.5437C85.4301 17.3713 85.07 17.1359 84.8023 16.8374C84.5345 16.5388 84.3606 16.2034 84.2806 15.831L86.0995 15.5863C86.1549 15.7279 86.2426 15.8602 86.3627 15.9833C86.4827 16.1064 86.6412 16.2049 86.8382 16.2788C87.0382 16.3557 87.2813 16.3942 87.5676 16.3942C87.9954 16.3942 88.3477 16.2895 88.6247 16.0803C88.9048 15.8741 89.0448 15.5278 89.0448 15.0415V13.7443H88.9617C88.8756 13.9413 88.7463 14.1275 88.574 14.3029C88.4016 14.4783 88.18 14.6214 87.9092 14.7322C87.6383 14.843 87.3152 14.8984 86.9397 14.8984C86.4073 14.8984 85.9226 14.7753 85.4855 14.5291C85.0516 14.2798 84.7053 13.8997 84.4468 13.3888C84.1914 12.8749 84.0637 12.2255 84.0637 11.4407C84.0637 10.6374 84.1945 9.9665 84.4561 9.42791C84.7177 8.88932 85.0654 8.48615 85.4994 8.21839C85.9364 7.95064 86.415 7.81676 86.9351 7.81676C87.3321 7.81676 87.6645 7.88447 87.9323 8.01989C88.2 8.15223 88.4155 8.31842 88.5786 8.51847C88.7448 8.71544 88.8725 8.90933 88.9617 9.10014H89.0356V7.90909H90.9884V15.0692C90.9884 15.6725 90.8406 16.1772 90.5452 16.5835C90.2497 16.9897 89.8404 17.2944 89.3172 17.4975C88.7971 17.7037 88.1985 17.8068 87.5214 17.8068ZM87.5629 13.4212C87.8799 13.4212 88.1477 13.3427 88.3662 13.1857C88.5878 13.0257 88.7571 12.7979 88.874 12.5025C88.9941 12.204 89.0541 11.8469 89.0541 11.4315C89.0541 11.016 88.9956 10.6559 88.8786 10.3512C88.7617 10.0434 88.5924 9.80492 88.3708 9.63565C88.1492 9.46638 87.8799 9.38175 87.5629 9.38175C87.2398 9.38175 86.9674 9.46946 86.7458 9.64489C86.5242 9.81723 86.3565 10.0573 86.2426 10.3651C86.1288 10.6728 86.0718 11.0283 86.0718 11.4315C86.0718 11.8408 86.1288 12.1947 86.2426 12.4933C86.3596 12.7887 86.5273 13.018 86.7458 13.1811C86.9674 13.3411 87.2398 13.4212 87.5629 13.4212ZM95.7849 15.1385C95.0555 15.1385 94.4276 14.9908 93.9014 14.6953C93.3782 14.3968 92.975 13.9751 92.6919 13.4304C92.4087 12.8826 92.2671 12.2347 92.2671 11.4869C92.2671 10.7575 92.4087 10.1173 92.6919 9.56641C92.975 9.01551 93.3736 8.58617 93.8875 8.27841C94.4046 7.97064 95.0109 7.81676 95.7064 7.81676C96.1742 7.81676 96.6097 7.89216 97.0129 8.04297C97.4191 8.1907 97.7731 8.41383 98.0747 8.71236C98.3794 9.01089 98.6163 9.38636 98.7856 9.83878C98.9549 10.2881 99.0395 10.8144 99.0395 11.4176V11.9577H93.0519V10.739H97.1883C97.1883 10.4558 97.1267 10.205 97.0036 9.98651C96.8805 9.76799 96.7097 9.59718 96.4912 9.47408C96.2758 9.34789 96.0249 9.2848 95.7387 9.2848C95.4402 9.2848 95.1755 9.35405 94.9447 9.49254C94.7169 9.62796 94.5384 9.81108 94.4092 10.0419C94.2799 10.2696 94.2137 10.5236 94.2107 10.8036V11.9624C94.2107 12.3132 94.2753 12.6164 94.4046 12.8718C94.5369 13.1272 94.7231 13.3242 94.9632 13.4627C95.2032 13.6012 95.4879 13.6705 95.8172 13.6705C96.0357 13.6705 96.2358 13.6397 96.4173 13.5781C96.5989 13.5166 96.7544 13.4242 96.8836 13.3011C97.0129 13.178 97.1114 13.0272 97.1791 12.8487L98.998 12.9688C98.9056 13.4058 98.7164 13.7874 98.4301 14.1136C98.147 14.4368 97.7807 14.6892 97.3314 14.8707C96.8852 15.0492 96.3696 15.1385 95.7849 15.1385ZM100.323 15V7.90909H102.229V9.14631H102.303C102.433 8.7062 102.65 8.37382 102.954 8.14915C103.259 7.9214 103.61 7.80753 104.007 7.80753C104.105 7.80753 104.211 7.81368 104.325 7.82599C104.439 7.8383 104.539 7.85523 104.625 7.87678V9.6218C104.533 9.5941 104.405 9.56948 104.242 9.54794C104.079 9.5264 103.93 9.51562 103.794 9.51562C103.505 9.51562 103.247 9.57872 103.019 9.7049C102.794 9.82801 102.616 10.0004 102.483 10.2219C102.354 10.4435 102.29 10.699 102.29 10.9883V15H100.323Z" fill="black"/>
</svg>
